name analog
datacolumns 19
datarows 26
range 0.32800000000000007 0.3405000000000001
endheader
time	ground_force_vx	ground_force_vy	ground_force_vz	ground_force_px	ground_force_py	ground_force_pz	l_ground_force_vx	l_ground_force_vy	l_ground_force_vz	l_ground_force_px	l_ground_force_py	l_ground_force_pz	ground_torque_x	ground_torque_y	ground_torque_z	l_ground_torque_x	l_ground_torque_y	l_ground_torque_z
0.32800000000000007	-0.0	-0.0	-0.0	7.5831427574157715	0.8716908693313599	-889.8963623046875	-0.0	-0.0	-0.0	-0.0	-0.0	-0.0	-0.0	-0.0	-0.0	-0.0	-0.0	-0.0
0.32850000000000007	-0.0	-0.0	-0.0	7.9497528076171875	3.218702793121338	-889.0691528320312	-0.0	-0.0	-0.0	-0.0	-0.0	-0.0	-0.0	-0.0	-0.0	-0.0	-0.0	-0.0
0.32900000000000007	-0.0	-0.0	-0.0	7.374215126037598	6.377081871032715	-885.188720703125	-0.0	-0.0	-0.0	-0.0	-0.0	-0.0	-0.0	-0.0	-0.0	-0.0	-0.0	-0.0
0.32950000000000007	-0.0	-0.0	-0.0	6.214249610900879	7.853628158569336	-880.4373168945312	-0.0	-0.0	-0.0	-0.0	-0.0	-0.0	-0.0	-0.0	-0.0	-0.0	-0.0	-0.0
0.33000000000000007	-0.0	-0.0	-0.0	5.362870216369629	8.151786804199219	-878.671142578125	-0.0	-0.0	-0.0	-0.0	-0.0	-0.0	-0.0	-0.0	-0.0	-0.0	-0.0	-0.0
0.33050000000000007	-0.0	-0.0	-0.0	5.5619730949401855	7.343137264251709	-877.366455078125	-0.0	-0.0	-0.0	-0.0	-0.0	-0.0	-0.0	-0.0	-0.0	-0.0	-0.0	-0.0
0.33100000000000007	-0.0	-0.0	-0.0	5.342246055603027	5.756221771240234	-877.4054565429688	-0.0	-0.0	-0.0	-0.0	-0.0	-0.0	-0.0	-0.0	-0.0	-0.0	-0.0	-0.0
0.3315000000000001	-0.0	-0.0	-0.0	5.1846699714660645	4.456520080566406	-879.2938232421875	-0.0	-0.0	-0.0	-0.0	-0.0	-0.0	-0.0	-0.0	-0.0	-0.0	-0.0	-0.0
0.3320000000000001	-0.0	-0.0	-0.0	5.184737682342529	3.255750894546509	-882.1184692382812	-0.0	-0.0	-0.0	-0.0	-0.0	-0.0	-0.0	-0.0	-0.0	-0.0	-0.0	-0.0
0.3325000000000001	-0.0	-0.0	-0.0	4.906578063964844	2.1646852493286133	-883.2437133789062	-0.0	-0.0	-0.0	-0.0	-0.0	-0.0	-0.0	-0.0	-0.0	-0.0	-0.0	-0.0
0.3330000000000001	-0.0	-0.0	-0.0	4.485698699951172	1.7148041725158691	-884.1935424804688	-0.0	-0.0	-0.0	-0.0	-0.0	-0.0	-0.0	-0.0	-0.0	-0.0	-0.0	-0.0
0.3335000000000001	-0.0	-0.0	-0.0	2.9514756202697754	2.374303340911865	-883.7413330078125	-0.0	-0.0	-0.0	-0.0	-0.0	-0.0	-0.0	-0.0	-0.0	-0.0	-0.0	-0.0
0.3340000000000001	-0.0	-0.0	-0.0	2.4086837768554688	3.6110806465148926	-883.3887329101562	-0.0	-0.0	-0.0	-0.0	-0.0	-0.0	-0.0	-0.0	-0.0	-0.0	-0.0	-0.0
0.3345000000000001	-0.0	-0.0	-0.0	1.562214970588684	4.400041103363037	-881.3133544921875	-0.0	-0.0	-0.0	-0.0	-0.0	-0.0	-0.0	-0.0	-0.0	-0.0	-0.0	-0.0
0.3350000000000001	-0.0	-0.0	-0.0	0.356842041015625	5.660501480102539	-880.0375366210938	-0.0	-0.0	-0.0	-0.0	-0.0	-0.0	-0.0	-0.0	-0.0	-0.0	-0.0	-0.0
0.3355000000000001	-0.0	-0.0	-0.0	-0.9252450466156006	5.915716648101807	-878.6209106445312	-0.0	-0.0	-0.0	-0.0	-0.0	-0.0	-0.0	-0.0	-0.0	-0.0	-0.0	-0.0
0.3360000000000001	-0.0	-0.0	-0.0	-2.152466297149658	5.091536521911621	-879.59521484375	-0.0	-0.0	-0.0	-0.0	-0.0	-0.0	-0.0	-0.0	-0.0	-0.0	-0.0	-0.0
0.3365000000000001	-0.0	-0.0	-0.0	-2.9999024868011475	3.621121644973755	-878.8433227539062	-0.0	-0.0	-0.0	-0.0	-0.0	-0.0	-0.0	-0.0	-0.0	-0.0	-0.0	-0.0
0.3370000000000001	-0.0	-0.0	-0.0	-3.8031375408172607	2.016251802444458	-877.5217895507812	-0.0	-0.0	-0.0	-0.0	-0.0	-0.0	-0.0	-0.0	-0.0	-0.0	-0.0	-0.0
0.3375000000000001	-0.0	-0.0	-0.0	-4.9405837059021	0.769668698310852	-879.6307373046875	-0.0	-0.0	-0.0	-0.0	-0.0	-0.0	-0.0	-0.0	-0.0	-0.0	-0.0	-0.0
0.3380000000000001	-0.0	-0.0	-0.0	-5.942866325378418	0.1668584048748016	-879.9888305664062	-0.0	-0.0	-0.0	-0.0	-0.0	-0.0	-0.0	-0.0	-0.0	-0.0	-0.0	-0.0
0.3385000000000001	-0.0	-0.0	-0.0	-7.1368408203125	-0.870993971824646	-879.5089721679688	-0.0	-0.0	-0.0	-0.0	-0.0	-0.0	-0.0	-0.0	-0.0	-0.0	-0.0	-0.0
0.3390000000000001	-0.0	-0.0	-0.0	-8.564208984375	-1.6241936683654783	-881.1710815429688	-0.0	-0.0	-0.0	-0.0	-0.0	-0.0	-0.0	-0.0	-0.0	-0.0	-0.0	-0.0
0.3395000000000001	-0.0	-0.0	-0.0	-11.023348808288574	-1.9608688354492188	-878.0665893554688	-0.0	-0.0	-0.0	-0.0	-0.0	-0.0	-0.0	-0.0	-0.0	-0.0	-0.0	-0.0
0.3400000000000001	-0.0	-0.0	-0.0	-12.144330024719238	-2.0733790397644043	-876.4710083007812	-0.0	-0.0	-0.0	-0.0	-0.0	-0.0	-0.0	-0.0	-0.0	-0.0	-0.0	-0.0
0.3405000000000001	-0.0	-0.0	-0.0	-12.381717681884766	-3.030433654785156	-876.6859130859375	-0.0	-0.0	-0.0	-0.0	-0.0	-0.0	-0.0	-0.0	-0.0	-0.0	-0.0	-0.0
